<?xml version="1.0" encoding="UTF-8" standalone="no"?>
<!-- Created with Inkscape (http://www.inkscape.org/) -->

<svg
   version="1.1"
   id="svg1"
   width="793.70667"
   height="1122.52"
   viewBox="0 0 793.70667 1122.52"
   sodipodi:docname="Fig4-6-(c).svg"
   inkscape:version="1.3.2 (091e20ef0f, 2023-11-25, custom)"
   xmlns:inkscape="http://www.inkscape.org/namespaces/inkscape"
   xmlns:sodipodi="http://sodipodi.sourceforge.net/DTD/sodipodi-0.dtd"
   xmlns="http://www.w3.org/2000/svg"
   xmlns:svg="http://www.w3.org/2000/svg">
  <defs
     id="defs1" />
  <sodipodi:namedview
     id="namedview1"
     pagecolor="#ffffff"
     bordercolor="#000000"
     borderopacity="0.25"
     inkscape:showpageshadow="2"
     inkscape:pageopacity="0.0"
     inkscape:pagecheckerboard="0"
     inkscape:deskcolor="#d1d1d1"
     showgrid="false"
     inkscape:zoom="2.0813615"
     inkscape:cx="329.35173"
     inkscape:cy="861.93582"
     inkscape:window-width="1920"
     inkscape:window-height="1043"
     inkscape:window-x="0"
     inkscape:window-y="0"
     inkscape:window-maximized="1"
     inkscape:current-layer="g1">
    <inkscape:page
       x="0"
       y="0"
       inkscape:label="1"
       id="page1"
       width="793.70667"
       height="1122.52" />
  </sodipodi:namedview>
  <g
     id="g1"
     inkscape:groupmode="layer"
     inkscape:label="1">
    <path
       id="path1"
       d="M -141.73404,0 H 165.498"
       style="fill:none;stroke:#000000;stroke-width:0.3985;stroke-linecap:butt;stroke-linejoin:miter;stroke-miterlimit:10;stroke-dasharray:none;stroke-opacity:1"
       transform="matrix(1.3333333,0,0,-1.3333333,315.61067,304.02267)" />
    <path
       id="path2"
       d="M 3.7613,0 C 3.2994,0.1127 1.26901,0.75136 0,1.44638 V -1.44638 C 1.26901,-0.75136 3.2994,-0.1127 3.7613,0 Z"
       style="fill:#000000;fill-opacity:1;fill-rule:nonzero;stroke:#000000;stroke-width:0.3985;stroke-linecap:butt;stroke-linejoin:miter;stroke-miterlimit:10;stroke-dasharray:none;stroke-opacity:1"
       transform="matrix(1.3333333,0,0,-1.3333333,536.27467,304.02267)" />
    <path
       id="path3"
       d="m 5.6590703,-4.8743672 c -0.375,0.070312 -0.515625,0.3515625 -0.515625,0.5859375 0,0.28125 0.2226563,0.375 0.3867188,0.375 0.3632812,0 0.609375,-0.3046875 0.609375,-0.6328125 0,-0.4921875 -0.5742188,-0.7265625 -1.078125,-0.7265625 -0.7265625,0 -1.125,0.7148438 -1.2421875,0.9492188 -0.2695313,-0.9023438 -1.0078125,-0.9492188 -1.2304688,-0.9492188 -1.21875,0 -1.86328124,1.5703125 -1.86328124,1.828125 0,0.046875 0.046875,0.1054688 0.12890625,0.1054688 0.10546875,0 0.12890625,-0.070312 0.15234379,-0.1171875 0.3984375,-1.3242188 1.2070312,-1.5703125 1.546875,-1.5703125 0.5390625,0 0.6445312,0.4921875 0.6445312,0.7851562 0,0.2578125 -0.070312,0.5390625 -0.2109375,1.1132813 l -0.4101562,1.6289062 c -0.1757813,0.72656251 -0.5273438,1.38281251 -1.1601563,1.38281251 -0.058594,0 -0.3515625,0 -0.60937499,-0.15234375 0.43359379,-0.09375 0.52734379,-0.4453125 0.52734379,-0.5859375 0,-0.24609376 -0.1757813,-0.38671876 -0.39843754,-0.38671876 -0.29296875,0 -0.59765625,0.24609376 -0.59765625,0.63281251 0,0.50390625 0.5625,0.7265625 1.06640629,0.7265625 0.5742187,0 0.984375,-0.45703125 1.2304687,-0.9375 0.1992188,0.703125 0.796875,0.9375 1.2304688,0.9375 1.2304687,0 1.875,-1.55859371 1.875,-1.82812501 0,-0.058594 -0.046875,-0.1054687 -0.1289063,-0.1054687 -0.1054687,0 -0.1171875,0.058594 -0.1523437,0.1523437 -0.3164063,1.05468751 -1.0195313,1.54687501 -1.546875,1.54687501 -0.421875,0 -0.65625,-0.31640625 -0.65625,-0.80859375 0,-0.25781246 0.058594,-0.44531246 0.2460937,-1.24218746 l 0.421875,-1.6171875 c 0.1757813,-0.7265625 0.5859375,-1.2421875 1.125,-1.2421875 0.035156,0 0.3632813,0 0.609375,0.1523437 z m 0,0"
       style="fill:#000000;fill-opacity:1;fill-rule:nonzero;stroke:none"
       aria-label="x"
       transform="matrix(1.3333333,0,0,1.3333333,537.95067,316.464)" />
    <path
       id="path4"
       d="M 0,0 V 137.1512"
       style="fill:none;stroke:#000000;stroke-width:0.3985;stroke-linecap:butt;stroke-linejoin:miter;stroke-miterlimit:10;stroke-dasharray:none;stroke-opacity:1"
       transform="matrix(1.3333333,0,0,-1.3333333,315.61067,304.02267)" />
    <path
       id="path5"
       d="M 3.7613,0 C 3.2994,0.1127 1.26901,0.75136 0,1.44638 V -1.44638 C 1.26901,-0.75136 3.2994,-0.1127 3.7613,0 Z"
       style="fill:#000000;fill-opacity:1;fill-rule:nonzero;stroke:#000000;stroke-width:0.3985;stroke-linecap:butt;stroke-linejoin:miter;stroke-miterlimit:10;stroke-dasharray:none;stroke-opacity:1"
       transform="matrix(0,-1.3333333,-1.3333333,0,315.61067,121.1544)" />
    <path
       id="path6"
       d="M 1.5231719,-0.97223437 C 2.0270781,-1.5581719 2.4489531,-1.9214531 3.0466094,-2.4605156 c 0.7148437,-0.6210938 1.03125,-0.9257813 1.1953125,-1.1015625 0.84375,-0.8203125 1.2539062,-1.5234375 1.2539062,-1.6171875 0,-0.09375 -0.09375,-0.09375 -0.1171875,-0.09375 -0.082031,0 -0.1054687,0.046875 -0.1640625,0.1289062 -0.3046875,0.515625 -0.5859375,0.7734375 -0.9023437,0.7734375 -0.2460938,0 -0.375,-0.1171875 -0.609375,-0.3984375 -0.2460938,-0.2929687 -0.4570313,-0.5039062 -0.796875,-0.5039062 -0.8789063,0 -1.3945313,1.0898437 -1.3945313,1.3359375 0,0.035156 0.011719,0.1171875 0.1171875,0.1171875 0.09375,0 0.1054688,-0.046875 0.140625,-0.140625 0.1992188,-0.46875 0.7734375,-0.5625 1.0078125,-0.5625 0.2460938,0 0.4804688,0.09375 0.7382813,0.1992187 0.4570312,0.1875 0.6445312,0.1875 0.7617187,0.1875 0.082031,0 0.1289063,0 0.1875,-0.011719 -0.3867187,0.46875 -1.03125,1.0429687 -1.5703125,1.5351562 l -1.2070312,1.1015625 c -0.72656252,0.75000003 -1.17187502,1.45312503 -1.17187502,1.53515628 0,0.0703125 0.0585938,0.09375 0.12890625,0.09375 0.0703125,0 0.0820313,-0.0117188 0.1640625,-0.15234375 0.19921877,-0.3046875 0.57421877,-0.73828125 1.01953127,-0.73828125 0.2460937,0 0.375,0.0820313 0.609375,0.375 0.2226562,0.26953125 0.4335937,0.515625 0.8085937,0.515625 1.171875,0 1.8515625,-1.51171878 1.8515625,-1.79296878 0,-0.046875 -0.011719,-0.1171875 -0.140625,-0.1171875 -0.09375,0 -0.1054687,0.046875 -0.140625,0.1640625 -0.2578125,0.70312503 -0.9726562,0.99609378 -1.4296875,0.99609378 -0.2578125,0 -0.4921875,-0.0820313 -0.75,-0.1875 -0.46875,-0.19921878 -0.609375,-0.19921878 -0.7617187,-0.19921878 -0.1171875,0 -0.2460938,0 -0.3515625,0.0468753 z m 0,0"
       style="fill:#000000;fill-opacity:1;fill-rule:nonzero;stroke:none"
       aria-label="z"
       transform="matrix(1.3333333,0,0,1.3333333,302.07067,118.476)" />
    <path
       id="path7"
       d="M -80.17696,-80.17696 0,0 138.27158,138.27158"
       style="fill:none;stroke:#000000;stroke-width:0.3985;stroke-linecap:butt;stroke-linejoin:miter;stroke-miterlimit:10;stroke-dasharray:none;stroke-opacity:1"
       transform="matrix(1.3333333,0,0,-1.3333333,315.61067,304.02267)" />
    <path
       id="path8"
       d="M 3.7613,0 C 3.2994,0.1127 1.26901,0.75136 0,1.44638 V -1.44638 C 1.26901,-0.75136 3.2994,-0.1127 3.7613,0 Z"
       style="fill:#000000;fill-opacity:1;fill-rule:nonzero;stroke:#000000;stroke-width:0.3985;stroke-linecap:butt;stroke-linejoin:miter;stroke-miterlimit:10;stroke-dasharray:none;stroke-opacity:1"
       transform="matrix(0.9428,-0.9428,-0.9428,-0.9428,499.97277,119.66056)" />
    <path
       id="path9"
       d="M 3.1409688,1.3350547 C 2.8245625,1.7920859 2.3558125,2.2022422 1.769875,2.2022422 c -0.140625,0 -0.7148437,-0.023437 -0.90234375,-0.5742188 0.046875,0.011719 0.10546875,0.011719 0.12890625,0.011719 0.3515625,0 0.5976563,-0.3164063 0.5976563,-0.5859375 0,-0.28125001 -0.234375,-0.37500001 -0.4101563,-0.37500001 -0.1875,0 -0.609375,0.140625 -0.609375,0.72656251 0,0.609375 0.515625,1.03125 1.1953125,1.03125 1.1953125,0 2.4023438,-1.1015625 2.7421875,-2.42578126 l 1.171875,-4.66406254 c 0.011719,-0.058594 0.035156,-0.1289062 0.035156,-0.1992187 0,-0.1757813 -0.1523438,-0.3046875 -0.328125,-0.3046875 -0.1054688,0 -0.3632813,0.046875 -0.4570313,0.4101562 l -0.8789062,3.515625 c -0.058594,0.2109375 -0.058594,0.23437504 -0.1523438,0.37500004 -0.2460937,0.328125 -0.6445312,0.73828125 -1.2070312,0.73828125 -0.6796875,0 -0.7382813,-0.65625 -0.7382813,-0.98437499 0,-0.6796875 0.328125,-1.6054688 0.6445313,-2.4609375 0.140625,-0.3515625 0.2109375,-0.515625 0.2109375,-0.75 0,-0.5039063 -0.3632813,-0.9609375 -0.9492188,-0.9609375 -1.1015625,0 -1.53515625,1.734375 -1.53515625,1.828125 0,0.046875 0.046875,0.1054687 0.12890625,0.1054687 0.10546875,0 0.1171875,-0.046875 0.1640625,-0.2109375 0.29296875,-1.0078125 0.7382813,-1.4765625 1.2070313,-1.4765625 0.1054687,0 0.3164062,0 0.3164062,0.3867188 0,0.3164062 -0.140625,0.65625 -0.3164062,1.1132812 -0.5859375,1.5703125 -0.5859375,1.9570313 -0.5859375,2.25 0,1.13671879 0.8085937,1.39453129 1.40625,1.39453129 0.3515625,0 0.7851562,-0.10546875 1.1953125,-0.55078125 l 0.011719,0.0117188 c -0.1757812,0.703125 -0.2929687,1.171875 -0.7148437,1.75781226 z m 0,0"
       style="fill:#000000;fill-opacity:1;fill-rule:nonzero;stroke:none"
       aria-label="y"
       transform="matrix(1.3333333,0,0,1.3333333,500.20267,106.66133)" />
    <path
       id="path10"
       d="M 56.69362,0 C 56.69362,15.6557 31.31142,28.3468 0,28.3468 -31.31142,28.3468 -56.69362,15.6557 -56.69362,0 c 0,-15.6557 25.3822,-28.3468 56.69362,-28.3468 31.31142,0 56.69362,12.6911 56.69362,28.3468 z"
       style="fill:none;stroke:#000000;stroke-width:0.3985;stroke-linecap:butt;stroke-linejoin:miter;stroke-miterlimit:10;stroke-dasharray:none;stroke-opacity:1"
       transform="matrix(1.3333333,0,0,-1.3333333,315.61067,304.02267)" />
    <path
       id="path11"
       d="m 85.04042,0 c 0,31.31142 -12.6911,56.69362 -28.3468,56.69362 C 41.0379,56.69362 28.3468,31.31142 28.3468,0 c 0,-31.31142 12.6911,-56.69362 28.34682,-56.69362 15.6557,0 28.3468,25.3822 28.3468,56.69362 z"
       style="fill:none;stroke:#000000;stroke-width:0.3985;stroke-linecap:butt;stroke-linejoin:miter;stroke-miterlimit:10;stroke-dasharray:none;stroke-opacity:1"
       transform="matrix(1.3333333,0,0,-1.3333333,315.61067,304.02267)" />
    <path
       id="path12"
       d="m 113.38724,0 c 0,46.96713 -25.3822,85.04042 -56.69362,85.04042 C 25.38219,85.04042 0,46.96713 0,0 c 0,-46.96713 25.38219,-85.04042 56.69362,-85.04042 31.31142,0 56.69362,38.07329 56.69362,85.04042 z"
       style="fill:none;stroke:#000000;stroke-width:0.3985;stroke-linecap:butt;stroke-linejoin:miter;stroke-miterlimit:10;stroke-dasharray:none;stroke-opacity:1"
       transform="matrix(1.3333333,0,0,-1.3333333,315.61067,304.02267)" />
    <path
       id="path13"
       d="M 4.8984219,1.09375e-4 V -0.35145312 H 4.5351406 c -1.0546875,0 -1.0898437,-0.140625 -1.0898437,-0.57421875 V -7.6639531 c 0,-0.2695313 0,-0.28125 -0.2460938,-0.28125 -0.28125,0.3164062 -0.8789062,0.7617187 -2.109375,0.7617187 v 0.3515625 c 0.2695313,0 0.8671875,0 1.5234375,-0.3164062 v 6.22265623 c 0,0.43359375 -0.035156,0.57421875 -1.078125,0.57421875 h -0.375 V 1.09375e-4 c 0.3164063,-0.023437495 1.4765625,-0.023437495 1.875,-0.023437495 0.3984375,0 1.546875,0 1.8632813,0.023437495 z m 0,0"
       style="fill:#000000;fill-opacity:1;fill-rule:nonzero;stroke:none"
       aria-label="1"
       transform="matrix(1.3333333,0,0,1.3333333,392.94533,1067.8827)" />
    <ellipse
       style="fill:#ffffff;fill-opacity:1;stroke:none;stroke-width:1.51181;stroke-miterlimit:4.7;stroke-dasharray:none;stroke-opacity:1;paint-order:markers stroke fill"
       id="path14"
       cx="485.68796"
       cy="360.95935"
       rx="10.172117"
       ry="11.030006" />
    <circle
       style="fill:#ffffff;fill-opacity:1;stroke:#000000;stroke-width:0.801255;stroke-miterlimit:4.7;stroke-dasharray:none;stroke-opacity:1;paint-order:markers stroke fill"
       id="path15"
       cx="442.00729"
       cy="346.51822"
       r="18.057562" />
    <circle
       style="fill:#ffffff;fill-opacity:1;stroke:none;stroke-width:0.414675;stroke-miterlimit:4.7;stroke-dasharray:none;stroke-opacity:1;paint-order:markers stroke fill"
       id="path16-1-68"
       cx="461.36099"
       cy="349.55045"
       r="1.0870955" />
    <circle
       style="fill:#ffffff;fill-opacity:1;stroke:none;stroke-width:0.414675;stroke-miterlimit:4.7;stroke-dasharray:none;stroke-opacity:1;paint-order:markers stroke fill"
       id="path16-1-49"
       cx="457.30847"
       cy="354.57886"
       r="1.0870955" />
    <circle
       style="fill:#ffffff;fill-opacity:1;stroke:none;stroke-width:0.414675;stroke-miterlimit:4.7;stroke-dasharray:none;stroke-opacity:1;paint-order:markers stroke fill"
       id="path16-1"
       cx="318.3678"
       cy="265.97696"
       r="1.0870955" />
    <circle
       style="fill:#ffffff;fill-opacity:1;stroke:none;stroke-width:0.414675;stroke-miterlimit:4.7;stroke-dasharray:none;stroke-opacity:1;paint-order:markers stroke fill"
       id="path16-1-22"
       cx="321.4053"
       cy="266.60745"
       r="1.0870955" />
    <circle
       style="fill:#ffffff;fill-opacity:1;stroke:none;stroke-width:0.414675;stroke-miterlimit:4.7;stroke-dasharray:none;stroke-opacity:1;paint-order:markers stroke fill"
       id="path16-1-6"
       cx="358.35904"
       cy="272.76617"
       r="1.0870955" />
    <circle
       style="fill:#ffffff;fill-opacity:1;stroke:none;stroke-width:0.414675;stroke-miterlimit:4.7;stroke-dasharray:none;stroke-opacity:1;paint-order:markers stroke fill"
       id="path16-1-1"
       cx="355.37869"
       cy="271.99817"
       r="1.0870955" />
    <circle
       style="fill:#ffffff;fill-opacity:1;stroke:none;stroke-width:0.414675;stroke-miterlimit:4.7;stroke-dasharray:none;stroke-opacity:1;paint-order:markers stroke fill"
       id="path16-1-4"
       cx="319.80673"
       cy="340.2197"
       r="1.0870955" />
    <circle
       style="fill:#ffffff;fill-opacity:1;stroke:none;stroke-width:0.414675;stroke-miterlimit:4.7;stroke-dasharray:none;stroke-opacity:1;paint-order:markers stroke fill"
       id="path16-1-10"
       cx="320.00327"
       cy="343.29904"
       r="1.0870955" />
    <circle
       style="fill:#ffffff;fill-opacity:1;stroke:none;stroke-width:0.414675;stroke-miterlimit:4.7;stroke-dasharray:none;stroke-opacity:1;paint-order:markers stroke fill"
       id="path16-1-61"
       cx="357.32184"
       cy="337.1778"
       r="1.0870955" />
    <circle
       style="fill:#ffffff;fill-opacity:1;stroke:none;stroke-width:0.414675;stroke-miterlimit:4.7;stroke-dasharray:none;stroke-opacity:1;paint-order:markers stroke fill"
       id="path16-1-65"
       cx="356.46445"
       cy="334.22168"
       r="1.0870955" />
    <circle
       style="fill:#ffffff;fill-opacity:1;stroke:none;stroke-width:0.414675;stroke-miterlimit:4.7;stroke-dasharray:none;stroke-opacity:1;paint-order:markers stroke fill"
       id="path16-1-45"
       cx="422.70093"
       cy="343.48624"
       r="1.0870955" />
    <circle
       style="fill:#ffffff;fill-opacity:1;stroke:none;stroke-width:0.414675;stroke-miterlimit:4.7;stroke-dasharray:none;stroke-opacity:1;paint-order:markers stroke fill"
       id="path16-1-44"
       cx="425.75958"
       cy="340.24936"
       r="1.0870955" />
  </g>
</svg>
