<?xml version="1.0" encoding="UTF-8" standalone="no"?>
<svg
   version="1.1"
   id="Layer_1"
   x="0px"
   y="0px"
   width="641.21606"
   viewBox="0 0 641.21606 495.92737"
   enable-background="new 0 0 747 551"
   xml:space="preserve"
   sodipodi:docname="Fig1-1.svg"
   inkscape:version="1.3 (0e150ed6c4, 2023-07-21)"
   height="495.92737"
   xmlns:inkscape="http://www.inkscape.org/namespaces/inkscape"
   xmlns:sodipodi="http://sodipodi.sourceforge.net/DTD/sodipodi-0.dtd"
   xmlns="http://www.w3.org/2000/svg"
   xmlns:svg="http://www.w3.org/2000/svg"><defs
   id="defs21" /><sodipodi:namedview
   id="namedview19"
   pagecolor="#ffffff"
   bordercolor="#000000"
   borderopacity="0.25"
   inkscape:showpageshadow="2"
   inkscape:pageopacity="0.0"
   inkscape:pagecheckerboard="0"
   inkscape:deskcolor="#d1d1d1"
   showgrid="false"
   inkscape:zoom="0.83153437"
   inkscape:cx="231.49975"
   inkscape:cy="228.49326"
   inkscape:window-width="1920"
   inkscape:window-height="1043"
   inkscape:window-x="0"
   inkscape:window-y="0"
   inkscape:window-maximized="1"
   inkscape:current-layer="Layer_1" />&#10;&#10;<path
   fill="#BABABA"
   opacity="1"
   stroke="none"
   d="m 240.01086,489.4288 c -13.93302,8.22699 -28.19344,7.69953 -42.815,3.61683 -16.57683,-4.62867 -28.99022,-14.4942 -38.35523,-28.85135 -3.47645,-5.32962 -9.13638,-9.24756 -12.54133,-14.60898 -11.42138,-17.98398 -22.0279,-36.58865 -23.79494,-58.36871 -0.88182,-10.86908 0.48938,-21.9115 0.65755,-32.8783 0.12651,-8.24979 1.13912,-16.72839 -0.37708,-24.69913 -1.85744,-9.76461 -3.26537,-19.87045 -8.79822,-28.74307 -4.90217,-7.86121 -11.53402,-12.99518 -19.985706,-16.5173 -9.71493,-4.04853 -19.31639,-2.98969 -29.274694,-1.39673 -9.418594,1.50656 -18.92881,3.65942 -28.59732,0.75738 C 29.798697,285.83945 24.66783,282.58759 21.010707,277.04679 14.077189,266.54209 5.7526651,256.67609 3.7547941,243.71836 0.93374111,225.42169 -2.1198689,207.3089 2.0261751,188.51119 6.3641921,168.84311 16.115878,152.78005 29.196158,138.05248 44.349089,120.99121 63.322783,109.21117 83.547774,99.758614 c 10.273,-4.8013 21.931756,-7.62306 33.794156,-6.39086 11.77591,1.22322 23.64891,2.05872 35.24393,4.28841 8.03111,1.54439 15.67038,5.143746 23.47135,7.863246 10.29368,3.58844 20.834,6.61939 30.79751,10.96855 13.75463,6.00409 27.22111,12.72609 40.52052,19.69499 8.90942,4.66858 17.7113,9.75206 25.84061,15.64425 9.22885,6.68913 17.63046,14.51551 26.43417,21.79615 12.47442,10.31632 25.06827,20.57694 39.6228,27.80857 9.90967,4.92373 20.89234,4.43617 31.27921,1.94079 8.59793,-2.06559 17.16076,-5.26791 24.93658,-9.45652 6.40128,-3.44822 11.53827,-9.19445 17.39093,-13.72142 9.13785,-7.06806 18.09708,-15.05547 29.26685,-18.11947 7.09802,-1.94706 15.76465,-1.93658 22.76703,0.25953 18.30267,5.74015 30.72375,19.05833 39.95294,35.56868 2.25043,4.02589 5.14868,7.68409 7.61377,11.59658 9.17773,14.56641 15.45849,30.36115 19.75634,46.98551 0.16626,0.64307 0.58295,1.2594 0.6023,1.89676 0.34808,11.45202 0.9007,22.90588 0.87469,34.35818 -0.0157,6.93689 -1.30126,13.86762 -1.38049,20.80835 -0.14129,12.37146 -1.54577,24.47843 -5.45215,36.26535 -3.96039,11.94983 -7.13641,24.20621 -11.82769,35.85651 -7.37922,18.32559 -19.78779,32.35208 -40.00693,36.1384 -15.61691,2.92446 -29.84561,-0.65155 -40.36676,-14.27253 -6.17804,-7.99823 -13.32504,-15.24673 -20.01392,-22.85208 -4.54922,-5.17251 -8.76871,-10.67395 -13.65762,-15.49948 -6.92334,-6.83356 -14.06537,-13.50256 -21.60895,-19.63275 -6.10809,-4.96368 -12.52206,-9.91629 -19.56125,-13.28287 -10.43982,-4.99304 -21.5451,-4.95291 -32.94156,-1.93051 -19.70355,5.22546 -27.95562,19.52502 -31.84701,37.77985 -0.27671,1.29803 -0.51737,2.60846 -0.8819,3.88244 -5.19058,18.14069 -9.98972,36.40674 -15.7196,54.37589 -5.73697,17.99139 -15.3573,34.19919 -25.9935,49.66253 -2.74265,3.98743 -7.98606,6.25477 -12.44327,9.38916 m 8.86099,-82.27276 c 10.9595,0 21.91901,0 33.11896,0 0,-16.40421 0,-32.30451 0,-48.43335 -12.80145,0 -25.37982,0 -38.19351,0 0,16.10919 0,32.00729 0,48.16943 1.56433,0.10095 2.85617,0.1843 5.07455,0.26392 m -90.83977,-54.55563 c -6.12584,-0.63447 -12.25169,-1.26893 -18.4669,-1.9126 0,10.98163 0,20.71109 0,30.52752 6.27908,0 12.28889,0 18.49791,0 0,-9.48538 0,-18.5979 -0.031,-28.61492 m 49.02817,-72.11988 c -0.78343,-0.77218 -1.53882,-2.17624 -2.35492,-2.21243 -4.77676,-0.21201 -9.56772,-0.10407 -14.40446,-0.10407 0,7.95716 0,15.38004 0,22.94648 5.64328,0 11.02292,0 16.76269,0 0,-6.78049 0,-13.24418 -0.003,-20.62998 z"
   id="path4"
   style="fill:#cccccc" /><path
   style="fill:#ffffff;stroke-width:0.0826535;stroke-miterlimit:4.7;paint-order:markers stroke fill;stop-color:#000000"
   d="m 384.07253,284.11764 c -7.0061,-19.6392 33.78491,-17.64509 33.78491,-17.64509 0,0 16.89578,3.064 22.5666,-12.35762 5.67086,-15.42162 9.94163,-11.98152 15.75377,-11.53461 5.81216,0.44693 10.98687,1.66683 12.21358,11.85338 1.28977,10.71024 0.0764,17.74461 -13.31779,19.03726 -13.39422,1.29264 -11.184,2.09007 -19.74575,12.40395 -8.56173,10.31388 -14.60165,28.50467 -26.88745,25.798 -12.2858,-2.70668 -24.36787,-27.55527 -24.36787,-27.55527 z"
   id="path500-2"
   sodipodi:nodetypes="ccssssssc" /><path
   fill="#0c0c0c"
   opacity="1"
   stroke="none"
   d="m 141.56606,381.73314 c -0.8782,-0.0541 -1.52459,-0.10949 -2.30734,-0.17656 0,-10.73551 0,-21.29567 0,-31.99607 6.41156,0 12.70538,0 19.11083,0 0,10.71344 0,21.27507 0,32.1714 -5.60411,0 -11.0879,0 -16.80349,10e-4 z"
   id="path8-3"
   style="fill:#000000;stroke-width:0.57651" /><path
   fill="#0c0c0c"
   opacity="1"
   stroke="none"
   d="m 192.32431,301.26729 c -0.77015,-0.0389 -1.33701,-0.0786 -2.02344,-0.12677 0,-7.70923 0,-15.29252 0,-22.97649 5.62267,0 11.14208,0 16.75938,0 0,7.69334 0,15.27768 0,23.10237 -4.91456,0 -9.72361,0 -14.73594,8e-4 z"
   id="path8-4"
   style="fill:#000000;stroke-width:0.457499" />&#10;<path
   fill="#BABABA"
   opacity="1"
   stroke="none"
   d="m 560.10085,86.542744 c 1.68329,9.78145 7.35334,17.021386 12.89655,24.278376 3.89087,5.09374 10.30933,6.01328 15.40656,2.16417 3.29187,-2.48585 6.40502,-5.2893 9.23156,-8.29524 7.97327,-8.479366 17.34119,-11.687516 28.74146,-8.504466 4.83227,1.34918 8.03668,4.172086 10.06946,8.809456 3.81707,8.70816 6.32202,17.486 3.669,27.04511 -3.36773,12.13423 -8.83264,22.795 -20.14862,29.51358 -1.25879,0.74737 -2.31451,1.88513 -3.35003,2.95277 -12.1814,12.55905 -27.49183,17.24347 -44.48383,17.97357 -5.5014,0.23639 -10.9657,1.30944 -16.46747,1.57601 -4.43884,0.21506 -8.91449,-0.11202 -13.36175,-0.39041 -1.96997,-0.12332 -3.93348,-1.14095 -5.86017,-1.03437 -13.07251,0.72319 -22.70575,-6.54373 -33.01673,-13.06042 -12.00915,-7.58994 -18.26324,-19.41428 -25.64004,-30.59064 -3.74475,-5.67358 -7.8367,-11.11738 -11.74674,-16.6826 -5.02694,-7.15492 -10.55133,-14.02785 -14.88336,-21.58305 -3.75632,-6.551196 -9.67145,-9.489076 -15.98224,-11.904506 -5.71078,-2.18575 -11.72158,-3.81517 -17.74414,-4.85917 -2.85312,-0.49458 -6.04095,0.95669 -9.07943,1.51394 -11.89121,2.18081 -23.67258,4.83181 -34.02207,11.43331 -7.40045,4.720426 -14.06763,10.740376 -21.80224,14.753926 -13.51725,7.01419 -28.02366,11.92389 -43.461,8.50026 -4.86591,-1.07915 -10.23215,-4.89721 -13.08796,-9.03597 -6.53497,-9.47064 -9.55752,-20.349166 -6.46899,-32.053136 1.85449,-7.02752 3.79727,-14.04072 6.02344,-20.956373 0.79675,-2.475204 2.19751,-4.946601 3.91064,-6.905365 11.37363,-13.004264 23.5835,-24.800682 39.61673,-32.394786 9.66483,-4.57771 19.39664,-8.238312 29.62885,-11.3541107 19.17294,-5.838349 38.72525,-6.23814 58.38196,-7.08358402 13.62527,-0.586044 27.22561,-0.853939 40.5534,2.21494702 21.3082,4.906471 42.95853,9.2773397 60.23264,24.1837647 5.81457,5.017594 11.71417,10.154015 16.45715,16.124169 3.52014,4.430877 5.77338,10.11222 7.63318,15.563339 3.10211,9.092689 5.43768,18.446899 8.15423,28.087499 M 359.6444,81.664484 c 4.79398,0 9.58796,0 14.54496,0 0,-12.02726 0,-23.567447 0,-35.162914 -7.89594,0 -15.44376,0 -23.10715,0 0,11.793519 0,23.219414 0,35.159164 2.66135,0 5.11749,0 8.56219,0.004 m 246.53312,42.393926 c 0,5.77997 0,11.55996 0,17.47696 7.29833,0 14.12408,0 20.97241,0 0,-9.8295 0,-19.23982 0,-28.78311 -7.07349,0 -13.90662,0 -20.97241,0 0,3.69904 0,7.00612 0,11.30615 z"
   id="path6"
   style="fill:#cccccc" />&#10;<path
   fill="#0C0C0C"
   opacity="1"
   stroke="none"
   d="m 248.40859,407.1579 c -1.75512,-0.0815 -3.04696,-0.16483 -4.61129,-0.26578 0,-16.16214 0,-32.06024 0,-48.16943 12.81369,0 25.39206,0 38.19351,0 0,16.12884 0,32.02914 0,48.43335 -11.19995,0 -22.15946,0 -33.58222,0.002 z"
   id="path8"
   style="fill:#000000" />&#10;&#10;&#10;<path
   fill="#080808"
   opacity="1"
   stroke="none"
   d="m 359.15011,81.662604 c -2.95041,-0.002 -5.40655,-0.002 -8.0679,-0.002 0,-11.93975 0,-23.365645 0,-35.159164 7.66339,0 15.21121,0 23.10715,0 0,11.595467 0,23.135654 0,35.162914 -4.957,0 -9.75098,0 -15.03925,-0.002 z"
   id="path14"
   style="fill:#000000" />&#10;<path
   fill="#090909"
   opacity="1"
   stroke="none"
   d="m 606.17752,123.56192 c 0,-3.80354 0,-7.11062 0,-10.80966 7.06579,0 13.89892,0 20.97241,0 0,9.54329 0,18.95361 0,28.78311 -6.84833,0 -13.67408,0 -20.97241,0 0,-5.917 0,-11.69699 0,-17.97345 z"
   id="path16"
   style="fill:#000000" />&#10;<path
   style="fill:#ffffff;stroke-width:0.120816;stroke-miterlimit:4.7;paint-order:markers stroke fill;stop-color:#000000"
   d="m 149.68135,214.34149 c 21.70685,-21.39577 53.15673,14.67754 53.15673,14.67754 0,0 15.88565,31.6106 39.82045,29.61602 23.93482,-1.99456 34.01827,6.31556 37.01012,14.29381 2.99185,7.97828 6.18594,19.06939 -6.55753,26.97678 -13.3986,8.31391 -41.70442,1.17876 -51.67726,-15.77505 -9.97283,-16.95383 -16.18813,-12.38049 -35.13652,-17.36691 -18.94839,-4.98641 -46.7807,-1.77334 -50.76983,-19.72445 -3.98914,-17.95111 14.15384,-32.69774 14.15384,-32.69774 z"
   id="path500"
   sodipodi:nodetypes="ccssssssc" /></svg>
